<?xml version="1.0" encoding="UTF-8"?>
<svg version="1.1" xmlns="http://www.w3.org/2000/svg" width="300" height="300">
<path d="M0 0 C99 0 198 0 300 0 C300 99 300 198 300 300 C201 300 102 300 0 300 C0 201 0 102 0 0 Z " fill="#5A9EA5" transform="translate(0,0)"/>
<path d="M0 0 C11.01770337 11.2709839 16.77020582 21.10645571 22 36 C22.70993103 37.86327942 23.41986206 39.72655884 24.15130615 41.64630127 C26.2002571 48.68825527 26.48134115 54.51923189 26.45410156 61.84667969 C26.45379944 64.56859558 26.45349731 67.29051147 26.45318604 70.09490967 C26.43254089 73.00780823 26.41189575 75.92070679 26.390625 78.921875 C26.38496521 81.92355774 26.37930542 84.92524048 26.37347412 88.0178833 C26.35110238 97.59541842 26.30089776 107.17257812 26.25 116.75 C26.22993634 123.24739043 26.21168535 129.74478672 26.1953125 136.2421875 C26.15123398 152.1615862 26.08430967 168.08076628 26 184 C20.02238928 182.80447786 16.07598258 180.31630862 11 177 C11 176.34 11 175.68 11 175 C10.01 175 9.02 175 8 175 C6.04643203 171.09286406 6.86514805 166.06823078 6.8581543 161.81176758 C6.84760262 158.22081963 6.84760262 158.22081963 6.83683777 154.55732727 C6.83267349 151.94610458 6.82850922 149.3348819 6.82421875 146.64453125 C6.80101221 141.15950141 6.77689455 135.67447535 6.75195312 130.18945312 C6.71687584 121.50819394 6.68752258 112.82707327 6.67407227 104.14575195 C6.65857977 95.7910055 6.61834334 87.43666918 6.57421875 79.08203125 C6.57708138 75.20466972 6.57708138 75.20466972 6.58000183 71.24897766 C6.47499664 55.7446006 5.8604421 42.75577367 -2 29 C-2.99 26.525 -2.99 26.525 -4 24 C-4.99 23.01 -5.98 22.02 -7 21 C-8.98 18.69 -10.96 16.38 -13 14 C-14.65 13.01 -16.3 12.02 -18 11 C-18.33 10.01 -18.66 9.02 -19 8 C-21.97 7.01 -24.94 6.02 -28 5 C-33 3 -33 3 -34 1 C-36.97 0.67 -39.94 0.34 -43 0 C-43.66 -0.33 -44.32 -0.66 -45 -1 C-58.01643616 -1.50776795 -70.39925596 -1.68802265 -83 2 C-83.99 2 -84.98 2 -86 2 C-86 2.66 -86 3.32 -86 4 C-94 8 -94 8 -96 8 C-96 8.66 -96 9.32 -96 10 C-97.98 10.495 -97.98 10.495 -100 11 C-100.66 12.32 -101.32 13.64 -102 15 C-104.31 17.31 -106.62 19.62 -109 22 C-119.59948645 40.86349283 -120.5698334 57.19115968 -120.50390625 78.38671875 C-120.51332748 81.11210403 -120.52274872 83.83748932 -120.53245544 86.64546204 C-120.56108817 95.32621842 -120.56418247 104.00670018 -120.5625 112.6875 C-120.56609747 121.40753556 -120.57548908 130.12737271 -120.60325623 138.84736633 C-120.62016117 144.26936807 -120.62283089 149.69143562 -120.61024475 155.1134491 C-120.61712814 157.55060806 -120.62401154 159.98776703 -120.63110352 162.4987793 C-120.63014175 164.65273727 -120.62917999 166.80669525 -120.62818909 169.02592468 C-121 174 -121 174 -124 177 C-127.465 178.98 -127.465 178.98 -131 181 C-132.98 182.98 -132.98 182.98 -135 185 C-136.65 185 -138.3 185 -140 185 C-140.10156776 166.06694123 -140.17153804 147.13395296 -140.21972656 128.20068359 C-140.23981954 121.76218032 -140.26709859 115.32369524 -140.30175781 108.88525391 C-140.35037209 99.62137352 -140.37299378 90.35773485 -140.390625 81.09375 C-140.41127014 78.22337036 -140.43191528 75.35299072 -140.45318604 72.39562988 C-140.45544025 52.23845874 -138.13765208 35.27530415 -129 17 C-128.34 17 -127.68 17 -127 17 C-126.34 15.02 -125.68 13.04 -125 11 C-121.14527994 6.49377796 -117.19209474 2.19209474 -113 -2 C-112.34 -2 -111.68 -2 -111 -2 C-110.67 -2.99 -110.34 -3.98 -110 -5 C-102.22472434 -10.21108901 -94.83280916 -13.98119181 -86 -17 C-84.68 -17.99 -83.36 -18.98 -82 -20 C-51.03926388 -26.19214722 -24.25649917 -20.01749932 0 0 Z " fill="#F5FAFA" transform="translate(210,62)"/>
<path d="M0 0 C0.144375 2.949375 0.28875 5.89875 0.4375 8.9375 C0.12380136 14.46258315 0.12380136 14.46258315 2 19 C7.33078182 19.37191501 12.66435886 19.70590954 18 20 C18 26.27 18 32.54 18 39 C24.6 39 31.2 39 38 39 C38 41.31 38 43.62 38 46 C36 48 36 48 30.1171875 48.1953125 C27.72726563 48.17210937 25.33734375 48.14890625 22.875 48.125 C19.28238281 48.09792969 19.28238281 48.09792969 15.6171875 48.0703125 C13.76351562 48.04710937 11.90984375 48.02390625 10 48 C9 46 9 46 9 39 C6.36 39 3.72 39 1 39 C1 41.64 1 44.28 1 47 C0.67 47.33 0.34 47.66 0 48 C-2.64 48 -5.28 48 -8 48 C-8.495 47.505 -8.495 47.505 -9 47 C-9 39 -9 39 -8 38 C-5.36 38 -2.72 38 0 38 C0 35.03 0 32.06 0 29 C-1.78148437 29.01160156 -3.56296875 29.02320313 -5.3984375 29.03515625 C-7.70070312 29.04417969 -10.00296875 29.05320313 -12.375 29.0625 C-14.67210937 29.07410156 -16.96921875 29.08570313 -19.3359375 29.09765625 C-25 29 -25 29 -27 28 C-27 22 -27 22 -25 19 C-19.66808622 18.87695584 -14.33182226 18.87305185 -9 19 C-9 13.06 -9 7.12 -9 1 C-7 0 -7 0 0 0 Z " fill="#F0F6F7" transform="translate(157,164)"/>
<path d="M0 0 C1.32 0.99 2.64 1.98 4 3 C6.475 3.99 6.475 3.99 9 5 C17 10 17 10 22 15 C21.67 16.98 21.34 18.96 21 21 C18 23 18 23 13 22 C10.2981389 19.7075118 7.6295531 17.37508022 5 15 C4.01 14.67 3.02 14.34 2 14 C2 13.34 2 12.68 2 12 C-7.68088296 10.89361338 -17.26410474 10.92679778 -27 11 C-27 11.66 -27 12.32 -27 13 C-34 16 -34 16 -39 17 C-39 17.66 -39 18.32 -39 19 C-39.66 19 -40.32 19 -41 19 C-41.66 20.32 -42.32 21.64 -43 23 C-44.65 23 -46.3 23 -48 23 C-49.32 21.68 -50.64 20.36 -52 19 C-50.62472322 12.12361609 -47.43729311 10.28186832 -42 6 C-27.23124945 -0.56388913 -15.96771776 -1.77419086 0 0 Z " fill="#F2F7F8" transform="translate(168,80)"/>
<path d="M0 0 C2.29710937 0.02320313 4.59421875 0.04640625 6.9609375 0.0703125 C9.26320312 0.08835938 11.56546875 0.10640625 13.9375 0.125 C15.71898437 0.14820313 17.50046875 0.17140625 19.3359375 0.1953125 C21.37431924 4.27207597 20.46618956 9.69744643 20.4609375 14.1328125 C20.46480469 17.39478516 20.46480469 17.39478516 20.46875 20.72265625 C20.3359375 26.1953125 20.3359375 26.1953125 19.3359375 29.1953125 C15.21107692 29.24903717 11.0860212 29.28797702 6.9609375 29.3203125 C4.66382813 29.34351563 2.36671875 29.36671875 0 29.390625 C-5.6640625 29.1953125 -5.6640625 29.1953125 -7.6640625 27.1953125 C-7.86173779 23.03250335 -7.92349121 18.86280175 -7.9140625 14.6953125 C-7.91921875 12.41625 -7.924375 10.1371875 -7.9296875 7.7890625 C-7.57221494 0.26111086 -7.57221494 0.26111086 0 0 Z " fill="#F3F8F9" transform="translate(173.6640625,144.8046875)"/>
<path d="M0 0 C4.12468636 -0.0805836 8.24981169 -0.13899555 12.375 -0.1875 C14.67210938 -0.22230469 16.96921875 -0.25710937 19.3359375 -0.29296875 C22.13964844 -0.14794922 22.13964844 -0.14794922 25 0 C28.1601953 4.74029296 27.26331039 9.44884289 27.25 15.0625 C27.25515625 17.23972656 27.2603125 19.41695312 27.265625 21.66015625 C27 27 27 27 25 29 C20.79396028 29.14503585 16.58332492 29.16750833 12.375 29.125 C10.07273437 29.10695312 7.77046875 29.08890625 5.3984375 29.0703125 C3.61695312 29.04710937 1.83546875 29.02390625 0 29 C-1.58740873 24.2377738 -1.13121564 19.49737819 -1.125 14.5 C-1.12757812 12.4271875 -1.13015625 10.354375 -1.1328125 8.21875 C-1 3 -1 3 0 0 Z " fill="#F4F9F9" transform="translate(113,202)"/>
<path d="M0 0 C2.29710938 0.02320313 4.59421875 0.04640625 6.9609375 0.0703125 C9.26320312 0.08835938 11.56546875 0.10640625 13.9375 0.125 C15.71898437 0.14820313 17.50046875 0.17140625 19.3359375 0.1953125 C21.43889533 4.40122815 20.42148061 10.2577765 20.3984375 14.8203125 C20.38941406 17.12257812 20.38039062 19.42484375 20.37109375 21.796875 C20.35949219 23.57835937 20.34789062 25.35984375 20.3359375 27.1953125 C15.21720933 28.47499454 10.48724193 28.36561464 5.2109375 28.3828125 C2.23707031 28.40408203 2.23707031 28.40408203 -0.796875 28.42578125 C-5.6640625 28.1953125 -5.6640625 28.1953125 -7.6640625 26.1953125 C-7.86153882 22.19932107 -7.92349848 18.19616933 -7.9140625 14.1953125 C-7.91921875 12.0090625 -7.924375 9.8228125 -7.9296875 7.5703125 C-7.5640446 0.17142095 -7.44240762 0.25663475 0 0 Z " fill="#F6FAFA" transform="translate(119.6640625,145.8046875)"/>
<path d="M0 0 C1.32 1.65 2.64 3.3 4 5 C3 10 3 10 1 13 C-4 13 -4 13 -11 8 C-11 7.34 -11 6.68 -11 6 C-19.94695003 5.55242399 -19.94695003 5.55242399 -28 9 C-28.66 9 -29.32 9 -30 9 C-30 9.66 -30 10.32 -30 11 C-32 12 -32 12 -38 12 C-38.66 11.01 -39.32 10.02 -40 9 C-39 4 -39 4 -36 0 C-22.62732777 -5.34906889 -13.28568811 -6.64284406 0 0 Z " fill="#F3F8F9" transform="translate(171,105)"/>
<path d="M0 0 C3.3 0 6.6 0 10 0 C10 3.63 10 7.26 10 11 C6.7 11 3.4 11 0 11 C-0.33 10.67 -0.66 10.34 -1 10 C-1 1 -1 1 0 0 Z " fill="#73ACB3" transform="translate(122,211)"/>
<path d="M0 0 C3.3 0 6.6 0 10 0 C11 1 11 1 11 10 C10.67 10.33 10.34 10.66 10 11 C7.03 11 4.06 11 1 11 C0.67 10.67 0.34 10.34 0 10 C0 6.7 0 3.4 0 0 Z " fill="#6DA9AF" transform="translate(175,154)"/>
<path d="M0 0 C2.31 0 4.62 0 7 0 C9 2 9 2 9 9 C7.68 9.99 6.36 10.98 5 12 C-1 11 -1 11 -2 10 C-2 2 -2 2 0 0 Z " fill="#EAF3F4" transform="translate(150,121)"/>
<path d="M0 0 C2.97 0 5.94 0 9 0 C11.60341656 2.60341656 10 7.31821299 10 11 C6.7 11 3.4 11 0 11 C0 7.37 0 3.74 0 0 Z " fill="#67A6AC" transform="translate(121,154)"/>
<path d="M0 0 C6 0 6 0 9 2 C9 4.31 9 6.62 9 9 C8.34 9 7.68 9 7 9 C7 9.66 7 10.32 7 11 C4.69 11 2.38 11 0 11 C-0.66 10.34 -1.32 9.68 -2 9 C-2 2 -2 2 0 0 Z " fill="#D5E6E8" transform="translate(150,220)"/>
<path d="M0 0 C2.64 0 5.28 0 8 0 C9 1 9 1 9 8 C8.01 9.485 8.01 9.485 7 11 C4.69 11 2.38 11 0 11 C-1 9 -1 9 -1 2 C-0.67 1.34 -0.34 0.68 0 0 Z " fill="#B1D1D5" transform="translate(149,144)"/>
<path d="M0 0 C0.66 0.33 1.32 0.66 2 1 C2 3.64 2 6.28 2 9 C0 10 0 10 -6 10 C-6.66 9.67 -7.32 9.34 -8 9 C-8 6.03 -8 3.06 -8 0 C-6 -1 -6 -1 0 0 Z " fill="#F8FBFB" transform="translate(193,183)"/>
<path d="M0 0 C1 1 1 1 1 8 C0.67 8.66 0.34 9.32 0 10 C-2.64 10 -5.28 10 -8 10 C-9 8 -9 8 -9 1 C-6 -1 -6 -1 0 0 Z " fill="#DDEBED" transform="translate(121,183)"/>
<path d="M0 0 C8 0 8 0 10 1 C10 3.64 10 6.28 10 9 C9.67 9.33 9.34 9.66 9 10 C2 10 2 10 0 9 C0 6.03 0 3.06 0 0 Z " fill="#FDFEFE" transform="translate(166,221)"/>
<path d="M0 0 C2.31 0 4.62 0 7 0 C7.33 0.33 7.66 0.66 8 1 C7.67 3.97 7.34 6.94 7 10 C5.02 10 3.04 10 1 10 C0.34 9.34 -0.32 8.68 -1 8 C-1 1 -1 1 0 0 Z " fill="#EAF3F4" transform="translate(186,221)"/>
<path d="M0 0 C2.64 0 5.28 0 8 0 C8 2.31 8 4.62 8 7 C7.67 7.33 7.34 7.66 7 8 C5.02 8 3.04 8 1 8 C0.67 7.67 0.34 7.34 0 7 C0 4.69 0 2.38 0 0 Z " fill="#F8FBFC" transform="translate(149,203)"/>
<path d="M0 0 C2.31 0 4.62 0 7 0 C7 2.31 7 4.62 7 7 C4.69 7 2.38 7 0 7 C0 4.69 0 2.38 0 0 Z " fill="#F9FCFC" transform="translate(150,147)"/>
<path d="M0 0 C-0.99 0.66 -1.98 1.32 -3 2 C-4.32 1.67 -5.64 1.34 -7 1 C-7 3.31 -7 5.62 -7 8 C-4.36 8 -1.72 8 1 8 C1 5.69 1 3.38 1 1 C1.33 1 1.66 1 2 1 C2 3.64 2 6.28 2 9 C0 10 0 10 -6 10 C-6.66 9.67 -7.32 9.34 -8 9 C-8 6.03 -8 3.06 -8 0 C-6 -1 -6 -1 0 0 Z " fill="#B7D5D8" transform="translate(193,183)"/>
<path d="M0 0 C2.64 0 5.28 0 8 0 C8 0.33 8 0.66 8 1 C5.69 1 3.38 1 1 1 C1 2.98 1 4.96 1 7 C3.64 7.33 6.28 7.66 9 8 C9 5.69 9 3.38 9 1 C9.33 1 9.66 1 10 1 C10 3.64 10 6.28 10 9 C9.67 9.33 9.34 9.66 9 10 C2 10 2 10 0 9 C0 6.03 0 3.06 0 0 Z " fill="#BFD9DC" transform="translate(166,221)"/>
<path d="M0 0 C0.66 0.33 1.32 0.66 2 1 C-2.25103529 5.25103529 -7.33159008 7.11053003 -13 9 C-13 8.34 -13 7.68 -13 7 C-5 3 -5 3 -3 3 C-3 2.34 -3 1.68 -3 1 C-2.01 0.67 -1.02 0.34 0 0 Z " fill="#9CC5C9" transform="translate(127,63)"/>
</svg>
